<mxfile host="app.diagrams.net" modified="2022-12-04T22:00:45.099Z" agent="5.0 (Windows NT 10.0; Win64; x64) AppleWebKit/537.36 (KHTML, like Gecko) Chrome/100.0.4896.127 Safari/537.36" etag="nPvZn_8Djgam_jtyqHDB" version="20.5.1" type="github">
  <diagram id="PXCcjUMb7tUucPaS4QIz" name="Page-1">
    <mxGraphModel dx="1237" dy="1790" grid="1" gridSize="10" guides="1" tooltips="1" connect="1" arrows="1" fold="1" page="1" pageScale="1" pageWidth="850" pageHeight="1100" math="0" shadow="0">
      <root>
        <mxCell id="0" />
        <mxCell id="1" parent="0" />
        <mxCell id="cFTrVpyWIn3HdovlY6KM-1" value="" style="ellipse;whiteSpace=wrap;html=1;aspect=fixed;fillColor=#dae8fc;strokeColor=#6c8ebf;sketch=1;" parent="1" vertex="1">
          <mxGeometry x="19.25999999999999" y="-1070" width="300" height="300" as="geometry" />
        </mxCell>
        <mxCell id="cFTrVpyWIn3HdovlY6KM-2" value="Combat System" style="text;html=1;strokeColor=none;fillColor=none;align=center;verticalAlign=middle;whiteSpace=wrap;rounded=0;" parent="1" vertex="1">
          <mxGeometry x="111.63" y="-960" width="100" height="70" as="geometry" />
        </mxCell>
        <mxCell id="cFTrVpyWIn3HdovlY6KM-5" value="" style="ellipse;whiteSpace=wrap;html=1;aspect=fixed;fillColor=#f8cecc;strokeColor=#b85450;shadow=0;sketch=1;" parent="1" vertex="1">
          <mxGeometry x="12.379999999999995" y="-535" width="300" height="300" as="geometry" />
        </mxCell>
        <mxCell id="cFTrVpyWIn3HdovlY6KM-6" value="Travel System" style="text;html=1;strokeColor=none;fillColor=none;align=center;verticalAlign=middle;whiteSpace=wrap;rounded=0;shadow=0;sketch=1;" parent="1" vertex="1">
          <mxGeometry x="117.38" y="-400" width="90" height="30" as="geometry" />
        </mxCell>
        <mxCell id="cFTrVpyWIn3HdovlY6KM-7" value="Meet enemies and start combat&lt;br&gt;" style="text;html=1;strokeColor=none;fillColor=none;align=center;verticalAlign=middle;whiteSpace=wrap;rounded=0;shadow=0;sketch=1;" parent="1" vertex="1">
          <mxGeometry x="166.88" y="-675" width="80" height="60" as="geometry" />
        </mxCell>
        <mxCell id="cFTrVpyWIn3HdovlY6KM-8" value="" style="ellipse;whiteSpace=wrap;html=1;aspect=fixed;shadow=0;sketch=1;fillColor=#fff2cc;strokeColor=#d6b656;" parent="1" vertex="1">
          <mxGeometry x="510.44" y="-535" width="300" height="300" as="geometry" />
        </mxCell>
        <mxCell id="cFTrVpyWIn3HdovlY6KM-9" value="Generating System" style="text;html=1;strokeColor=none;fillColor=none;align=center;verticalAlign=middle;whiteSpace=wrap;rounded=0;shadow=0;sketch=1;" parent="1" vertex="1">
          <mxGeometry x="596.1800000000001" y="-405" width="120" height="30" as="geometry" />
        </mxCell>
        <mxCell id="cFTrVpyWIn3HdovlY6KM-10" value="Random Generate when Travelling" style="text;html=1;strokeColor=none;fillColor=none;align=center;verticalAlign=middle;whiteSpace=wrap;rounded=0;shadow=0;sketch=1;" parent="1" vertex="1">
          <mxGeometry x="391" y="-470" width="60" height="85" as="geometry" />
        </mxCell>
        <mxCell id="cFTrVpyWIn3HdovlY6KM-11" value="Enemies are randomly generated" style="text;html=1;strokeColor=none;fillColor=none;align=center;verticalAlign=middle;whiteSpace=wrap;rounded=0;shadow=0;sketch=1;" parent="1" vertex="1">
          <mxGeometry x="404.26" y="-710" width="75" height="55" as="geometry" />
        </mxCell>
        <mxCell id="cFTrVpyWIn3HdovlY6KM-12" value="" style="ellipse;whiteSpace=wrap;html=1;aspect=fixed;shadow=0;sketch=1;fillColor=#d5e8d4;strokeColor=#82b366;" parent="1" vertex="1">
          <mxGeometry x="521.8199999999999" y="-1070" width="300" height="300" as="geometry" />
        </mxCell>
        <mxCell id="cFTrVpyWIn3HdovlY6KM-13" value="Collect System" style="text;html=1;strokeColor=none;fillColor=none;align=center;verticalAlign=middle;whiteSpace=wrap;rounded=0;shadow=0;sketch=1;" parent="1" vertex="1">
          <mxGeometry x="624.0699999999999" y="-940" width="90" height="40" as="geometry" />
        </mxCell>
        <mxCell id="cFTrVpyWIn3HdovlY6KM-15" value="Collectable&amp;nbsp; items are randomly generated" style="text;html=1;strokeColor=none;fillColor=none;align=center;verticalAlign=middle;whiteSpace=wrap;rounded=0;shadow=0;sketch=1;" parent="1" vertex="1">
          <mxGeometry x="596.1799999999998" y="-675" width="60" height="47.5" as="geometry" />
        </mxCell>
        <mxCell id="cFTrVpyWIn3HdovlY6KM-16" value="Beat enemies to get award" style="text;html=1;strokeColor=none;fillColor=none;align=center;verticalAlign=middle;whiteSpace=wrap;rounded=0;shadow=0;sketch=1;" parent="1" vertex="1">
          <mxGeometry x="411.38" y="-960" width="60" height="30" as="geometry" />
        </mxCell>
        <mxCell id="F2M6K5cG2sb-yx1ZD4yc-1" value="" style="ellipse;whiteSpace=wrap;html=1;aspect=fixed;fillColor=#FFD966;" parent="1" vertex="1">
          <mxGeometry x="166.76" y="290" width="480" height="480" as="geometry" />
        </mxCell>
        <mxCell id="F2M6K5cG2sb-yx1ZD4yc-3" value="" style="ellipse;whiteSpace=wrap;html=1;aspect=fixed;fillColor=#FFFFFF;" parent="1" vertex="1">
          <mxGeometry x="108.75999999999999" y="270" width="128" height="128" as="geometry" />
        </mxCell>
        <mxCell id="F2M6K5cG2sb-yx1ZD4yc-4" value="" style="ellipse;whiteSpace=wrap;html=1;aspect=fixed;fillColor=#FFFFFF;" parent="1" vertex="1">
          <mxGeometry x="566.76" y="672.5" width="128" height="128" as="geometry" />
        </mxCell>
        <mxCell id="F2M6K5cG2sb-yx1ZD4yc-5" value="" style="ellipse;whiteSpace=wrap;html=1;aspect=fixed;fillColor=#FFFFFF;" parent="1" vertex="1">
          <mxGeometry x="112.75999999999999" y="662.5" width="128" height="128" as="geometry" />
        </mxCell>
        <mxCell id="F2M6K5cG2sb-yx1ZD4yc-6" value="Moving Controller System:&lt;br&gt;Slip on screen to move (like 2048)" style="text;html=1;strokeColor=none;fillColor=none;align=center;verticalAlign=middle;whiteSpace=wrap;rounded=0;" parent="1" vertex="1">
          <mxGeometry x="118.75999999999999" y="294" width="100" height="80" as="geometry" />
        </mxCell>
        <mxCell id="F2M6K5cG2sb-yx1ZD4yc-8" value="Travel event:&amp;nbsp;&lt;br&gt;Meet enemies and start fight" style="text;html=1;strokeColor=none;fillColor=none;align=center;verticalAlign=middle;whiteSpace=wrap;rounded=0;" parent="1" vertex="1">
          <mxGeometry x="586.76" y="690" width="90" height="93" as="geometry" />
        </mxCell>
        <mxCell id="F2M6K5cG2sb-yx1ZD4yc-9" value="Travel event:&amp;nbsp;&lt;br&gt;Collactable items" style="text;html=1;strokeColor=none;fillColor=none;align=center;verticalAlign=middle;whiteSpace=wrap;rounded=0;" parent="1" vertex="1">
          <mxGeometry x="131.76" y="677" width="90" height="93" as="geometry" />
        </mxCell>
        <mxCell id="F2M6K5cG2sb-yx1ZD4yc-10" value="" style="rounded=0;whiteSpace=wrap;html=1;fillColor=#CCCCFF;" parent="1" vertex="1">
          <mxGeometry x="231.76" y="365" width="350" height="330" as="geometry" />
        </mxCell>
        <mxCell id="F2M6K5cG2sb-yx1ZD4yc-11" value="" style="ellipse;whiteSpace=wrap;html=1;aspect=fixed;fillColor=#FFFFFF;" parent="1" vertex="1">
          <mxGeometry x="561.76" y="250" width="128" height="128" as="geometry" />
        </mxCell>
        <mxCell id="F2M6K5cG2sb-yx1ZD4yc-13" value="Travel event:&lt;br&gt;New items generated&amp;nbsp;" style="text;html=1;strokeColor=none;fillColor=none;align=center;verticalAlign=middle;whiteSpace=wrap;rounded=0;" parent="1" vertex="1">
          <mxGeometry x="579.76" y="280" width="97" height="70" as="geometry" />
        </mxCell>
        <mxCell id="F2M6K5cG2sb-yx1ZD4yc-15" value="&lt;b&gt;Travel System&lt;/b&gt;" style="text;html=1;strokeColor=none;fillColor=none;align=center;verticalAlign=middle;whiteSpace=wrap;rounded=0;" parent="1" vertex="1">
          <mxGeometry x="306.76" y="490" width="180" height="110" as="geometry" />
        </mxCell>
        <mxCell id="F2M6K5cG2sb-yx1ZD4yc-18" value="" style="curved=1;endArrow=classic;html=1;rounded=0;exitX=0.956;exitY=0.261;exitDx=0;exitDy=0;exitPerimeter=0;entryX=0;entryY=0.5;entryDx=0;entryDy=0;" parent="1" source="F2M6K5cG2sb-yx1ZD4yc-3" target="F2M6K5cG2sb-yx1ZD4yc-11" edge="1">
          <mxGeometry width="50" height="50" relative="1" as="geometry">
            <mxPoint x="306.76" y="270" as="sourcePoint" />
            <mxPoint x="356.76" y="220" as="targetPoint" />
            <Array as="points">
              <mxPoint x="346.76" y="260" />
              <mxPoint x="406.76" y="260" />
              <mxPoint x="426.76" y="260" />
            </Array>
          </mxGeometry>
        </mxCell>
        <mxCell id="F2M6K5cG2sb-yx1ZD4yc-19" value="Passive action" style="text;html=1;strokeColor=none;fillColor=none;align=center;verticalAlign=middle;whiteSpace=wrap;rounded=0;" parent="1" vertex="1">
          <mxGeometry x="351.76" y="230" width="90" height="30" as="geometry" />
        </mxCell>
        <mxCell id="F2M6K5cG2sb-yx1ZD4yc-20" value="" style="curved=1;endArrow=classic;html=1;rounded=0;exitX=0.184;exitY=0.922;exitDx=0;exitDy=0;exitPerimeter=0;entryX=0;entryY=0;entryDx=0;entryDy=0;" parent="1" source="F2M6K5cG2sb-yx1ZD4yc-3" target="F2M6K5cG2sb-yx1ZD4yc-9" edge="1">
          <mxGeometry width="50" height="50" relative="1" as="geometry">
            <mxPoint x="56.75999999999999" y="500" as="sourcePoint" />
            <mxPoint x="106.75999999999999" y="450" as="targetPoint" />
            <Array as="points">
              <mxPoint x="106.75999999999999" y="500" />
            </Array>
          </mxGeometry>
        </mxCell>
        <mxCell id="F2M6K5cG2sb-yx1ZD4yc-21" value="Active Action" style="text;html=1;strokeColor=none;fillColor=none;align=center;verticalAlign=middle;whiteSpace=wrap;rounded=0;" parent="1" vertex="1">
          <mxGeometry x="86.00999999999999" y="510" width="120" height="90" as="geometry" />
        </mxCell>
        <mxCell id="F2M6K5cG2sb-yx1ZD4yc-22" value="" style="curved=1;endArrow=classic;html=1;rounded=0;exitX=0.5;exitY=1;exitDx=0;exitDy=0;" parent="1" source="F2M6K5cG2sb-yx1ZD4yc-3" target="F2M6K5cG2sb-yx1ZD4yc-4" edge="1">
          <mxGeometry width="50" height="50" relative="1" as="geometry">
            <mxPoint x="6.759999999999991" y="390" as="sourcePoint" />
            <mxPoint x="56.75999999999999" y="340" as="targetPoint" />
            <Array as="points">
              <mxPoint x="186.76" y="550" />
              <mxPoint x="386.76" y="780" />
            </Array>
          </mxGeometry>
        </mxCell>
        <mxCell id="F2M6K5cG2sb-yx1ZD4yc-23" value="Active Action" style="text;html=1;strokeColor=none;fillColor=none;align=center;verticalAlign=middle;whiteSpace=wrap;rounded=0;" parent="1" vertex="1">
          <mxGeometry x="276.76" y="642.5" width="80" height="30" as="geometry" />
        </mxCell>
        <mxCell id="F2M6K5cG2sb-yx1ZD4yc-24" value="" style="ellipse;whiteSpace=wrap;html=1;aspect=fixed;fillColor=#FFD966;" parent="1" vertex="1">
          <mxGeometry x="113" y="1350" width="480" height="480" as="geometry" />
        </mxCell>
        <mxCell id="F2M6K5cG2sb-yx1ZD4yc-25" value="" style="ellipse;whiteSpace=wrap;html=1;aspect=fixed;fillColor=#FFFFFF;" parent="1" vertex="1">
          <mxGeometry x="55" y="1330" width="128" height="128" as="geometry" />
        </mxCell>
        <mxCell id="F2M6K5cG2sb-yx1ZD4yc-26" value="" style="ellipse;whiteSpace=wrap;html=1;aspect=fixed;fillColor=#FFFFFF;" parent="1" vertex="1">
          <mxGeometry x="513" y="1732.5" width="128" height="128" as="geometry" />
        </mxCell>
        <mxCell id="F2M6K5cG2sb-yx1ZD4yc-27" value="" style="ellipse;whiteSpace=wrap;html=1;aspect=fixed;fillColor=#FFFFFF;" parent="1" vertex="1">
          <mxGeometry x="59" y="1722.5" width="128" height="128" as="geometry" />
        </mxCell>
        <mxCell id="F2M6K5cG2sb-yx1ZD4yc-28" value="Combat Start:&lt;br&gt;Move to the same grid with enemies" style="text;html=1;strokeColor=none;fillColor=none;align=center;verticalAlign=middle;whiteSpace=wrap;rounded=0;" parent="1" vertex="1">
          <mxGeometry x="65" y="1354" width="100" height="80" as="geometry" />
        </mxCell>
        <mxCell id="F2M6K5cG2sb-yx1ZD4yc-29" value="Defeat System:&lt;br&gt;Player go back to origin grid, if get killed, restart the game" style="text;html=1;strokeColor=none;fillColor=none;align=center;verticalAlign=middle;whiteSpace=wrap;rounded=0;" parent="1" vertex="1">
          <mxGeometry x="512" y="1737" width="130" height="123" as="geometry" />
        </mxCell>
        <mxCell id="F2M6K5cG2sb-yx1ZD4yc-30" value="Victory System:&lt;br&gt;Enemies disappear, player reduce helth and get reward" style="text;html=1;strokeColor=none;fillColor=none;align=center;verticalAlign=middle;whiteSpace=wrap;rounded=0;" parent="1" vertex="1">
          <mxGeometry x="72" y="1740" width="94" height="90" as="geometry" />
        </mxCell>
        <mxCell id="F2M6K5cG2sb-yx1ZD4yc-31" value="" style="rounded=0;whiteSpace=wrap;html=1;fillColor=#CCCCFF;" parent="1" vertex="1">
          <mxGeometry x="178" y="1425" width="350" height="330" as="geometry" />
        </mxCell>
        <mxCell id="F2M6K5cG2sb-yx1ZD4yc-32" value="" style="ellipse;whiteSpace=wrap;html=1;aspect=fixed;fillColor=#FFFFFF;" parent="1" vertex="1">
          <mxGeometry x="508" y="1310" width="128" height="128" as="geometry" />
        </mxCell>
        <mxCell id="F2M6K5cG2sb-yx1ZD4yc-33" value="Turn Based Combat: Enemies/player spell ability to attact and (de)buff them selves&amp;nbsp;" style="text;html=1;strokeColor=none;fillColor=none;align=center;verticalAlign=middle;whiteSpace=wrap;rounded=0;" parent="1" vertex="1">
          <mxGeometry x="513" y="1339" width="109.5" height="70" as="geometry" />
        </mxCell>
        <mxCell id="F2M6K5cG2sb-yx1ZD4yc-34" value="&lt;b&gt;Combat System&lt;/b&gt;" style="text;html=1;strokeColor=none;fillColor=none;align=center;verticalAlign=middle;whiteSpace=wrap;rounded=0;" parent="1" vertex="1">
          <mxGeometry x="272" y="1550" width="180" height="110" as="geometry" />
        </mxCell>
        <mxCell id="F2M6K5cG2sb-yx1ZD4yc-35" value="" style="curved=1;endArrow=classic;html=1;rounded=0;exitX=0.956;exitY=0.261;exitDx=0;exitDy=0;exitPerimeter=0;entryX=0;entryY=0.5;entryDx=0;entryDy=0;" parent="1" source="F2M6K5cG2sb-yx1ZD4yc-25" target="F2M6K5cG2sb-yx1ZD4yc-32" edge="1">
          <mxGeometry width="50" height="50" relative="1" as="geometry">
            <mxPoint x="253" y="1330" as="sourcePoint" />
            <mxPoint x="303" y="1280" as="targetPoint" />
            <Array as="points">
              <mxPoint x="293" y="1320" />
              <mxPoint x="353" y="1320" />
              <mxPoint x="373" y="1320" />
            </Array>
          </mxGeometry>
        </mxCell>
        <mxCell id="F2M6K5cG2sb-yx1ZD4yc-36" value="Passive action" style="text;html=1;strokeColor=none;fillColor=none;align=center;verticalAlign=middle;whiteSpace=wrap;rounded=0;" parent="1" vertex="1">
          <mxGeometry x="298" y="1290" width="90" height="30" as="geometry" />
        </mxCell>
        <mxCell id="F2M6K5cG2sb-yx1ZD4yc-37" value="" style="curved=1;endArrow=classic;html=1;rounded=0;" parent="1" source="F2M6K5cG2sb-yx1ZD4yc-33" target="F2M6K5cG2sb-yx1ZD4yc-27" edge="1">
          <mxGeometry width="50" height="50" relative="1" as="geometry">
            <mxPoint x="3" y="1560" as="sourcePoint" />
            <mxPoint x="53" y="1510" as="targetPoint" />
            <Array as="points">
              <mxPoint x="53" y="1560" />
            </Array>
          </mxGeometry>
        </mxCell>
        <mxCell id="F2M6K5cG2sb-yx1ZD4yc-38" value="Active Action" style="text;html=1;strokeColor=none;fillColor=none;align=center;verticalAlign=middle;whiteSpace=wrap;rounded=0;" parent="1" vertex="1">
          <mxGeometry x="217" y="1425" width="120" height="90" as="geometry" />
        </mxCell>
        <mxCell id="F2M6K5cG2sb-yx1ZD4yc-39" value="" style="curved=1;endArrow=classic;html=1;rounded=0;exitX=1;exitY=1;exitDx=0;exitDy=0;" parent="1" source="F2M6K5cG2sb-yx1ZD4yc-32" target="F2M6K5cG2sb-yx1ZD4yc-26" edge="1">
          <mxGeometry width="50" height="50" relative="1" as="geometry">
            <mxPoint x="51.379999999999995" y="1460" as="sourcePoint" />
            <mxPoint x="101.38" y="1410" as="targetPoint" />
            <Array as="points">
              <mxPoint x="690" y="1500" />
              <mxPoint x="700" y="1590" />
              <mxPoint x="690" y="1690" />
            </Array>
          </mxGeometry>
        </mxCell>
        <mxCell id="F2M6K5cG2sb-yx1ZD4yc-40" value="Active Action" style="text;html=1;strokeColor=none;fillColor=none;align=center;verticalAlign=middle;whiteSpace=wrap;rounded=0;" parent="1" vertex="1">
          <mxGeometry x="620.44" y="1575" width="80" height="30" as="geometry" />
        </mxCell>
        <mxCell id="F2M6K5cG2sb-yx1ZD4yc-41" value="" style="ellipse;whiteSpace=wrap;html=1;aspect=fixed;fillColor=#FFD966;" parent="1" vertex="1">
          <mxGeometry x="151.38" y="2280" width="480" height="480" as="geometry" />
        </mxCell>
        <mxCell id="F2M6K5cG2sb-yx1ZD4yc-42" value="" style="ellipse;whiteSpace=wrap;html=1;aspect=fixed;fillColor=#FFFFFF;" parent="1" vertex="1">
          <mxGeometry x="93.38" y="2260" width="128" height="128" as="geometry" />
        </mxCell>
        <mxCell id="F2M6K5cG2sb-yx1ZD4yc-43" value="" style="ellipse;whiteSpace=wrap;html=1;aspect=fixed;fillColor=#FFFFFF;" parent="1" vertex="1">
          <mxGeometry x="551.38" y="2662.5" width="128" height="128" as="geometry" />
        </mxCell>
        <mxCell id="F2M6K5cG2sb-yx1ZD4yc-44" value="" style="ellipse;whiteSpace=wrap;html=1;aspect=fixed;fillColor=#FFFFFF;" parent="1" vertex="1">
          <mxGeometry x="97.38" y="2652.5" width="128" height="128" as="geometry" />
        </mxCell>
        <mxCell id="F2M6K5cG2sb-yx1ZD4yc-45" value="Start Generate:&lt;br&gt;Generate for each move" style="text;html=1;strokeColor=none;fillColor=none;align=center;verticalAlign=middle;whiteSpace=wrap;rounded=0;" parent="1" vertex="1">
          <mxGeometry x="103.38" y="2284" width="100" height="80" as="geometry" />
        </mxCell>
        <mxCell id="F2M6K5cG2sb-yx1ZD4yc-46" value="Game Start Generate：&lt;br&gt;Generate enemies based on difficult" style="text;html=1;strokeColor=none;fillColor=none;align=center;verticalAlign=middle;whiteSpace=wrap;rounded=0;" parent="1" vertex="1">
          <mxGeometry x="550.38" y="2667" width="130" height="123" as="geometry" />
        </mxCell>
        <mxCell id="F2M6K5cG2sb-yx1ZD4yc-47" value="Generate items:&lt;br&gt;Random generate on map, may disappear on each walk" style="text;html=1;strokeColor=none;fillColor=none;align=center;verticalAlign=middle;whiteSpace=wrap;rounded=0;" parent="1" vertex="1">
          <mxGeometry x="116.88" y="2671.5" width="94" height="90" as="geometry" />
        </mxCell>
        <mxCell id="F2M6K5cG2sb-yx1ZD4yc-48" value="" style="rounded=0;whiteSpace=wrap;html=1;fillColor=#CCCCFF;" parent="1" vertex="1">
          <mxGeometry x="216.38" y="2355" width="350" height="330" as="geometry" />
        </mxCell>
        <mxCell id="F2M6K5cG2sb-yx1ZD4yc-49" value="" style="ellipse;whiteSpace=wrap;html=1;aspect=fixed;fillColor=#FFFFFF;" parent="1" vertex="1">
          <mxGeometry x="546.38" y="2240" width="128" height="128" as="geometry" />
        </mxCell>
        <mxCell id="F2M6K5cG2sb-yx1ZD4yc-50" value="Generate Enemies:&lt;br&gt;For each move, change enemies position&amp;nbsp;" style="text;html=1;strokeColor=none;fillColor=none;align=center;verticalAlign=middle;whiteSpace=wrap;rounded=0;" parent="1" vertex="1">
          <mxGeometry x="551.38" y="2269" width="109.5" height="70" as="geometry" />
        </mxCell>
        <mxCell id="F2M6K5cG2sb-yx1ZD4yc-51" value="&lt;b&gt;Generating System&lt;/b&gt;" style="text;html=1;strokeColor=none;fillColor=none;align=center;verticalAlign=middle;whiteSpace=wrap;rounded=0;" parent="1" vertex="1">
          <mxGeometry x="101" y="2440" width="598.62" height="155" as="geometry" />
        </mxCell>
        <mxCell id="F2M6K5cG2sb-yx1ZD4yc-52" value="" style="curved=1;endArrow=classic;html=1;rounded=0;exitX=0.956;exitY=0.261;exitDx=0;exitDy=0;exitPerimeter=0;entryX=0;entryY=0.5;entryDx=0;entryDy=0;" parent="1" source="F2M6K5cG2sb-yx1ZD4yc-42" target="F2M6K5cG2sb-yx1ZD4yc-49" edge="1">
          <mxGeometry width="50" height="50" relative="1" as="geometry">
            <mxPoint x="291.38" y="2260" as="sourcePoint" />
            <mxPoint x="341.38" y="2210" as="targetPoint" />
            <Array as="points">
              <mxPoint x="331.38" y="2250" />
              <mxPoint x="391.38" y="2250" />
              <mxPoint x="411.38" y="2250" />
            </Array>
          </mxGeometry>
        </mxCell>
        <mxCell id="F2M6K5cG2sb-yx1ZD4yc-53" value="Passive action" style="text;html=1;strokeColor=none;fillColor=none;align=center;verticalAlign=middle;whiteSpace=wrap;rounded=0;" parent="1" vertex="1">
          <mxGeometry x="336.38" y="2220" width="90" height="30" as="geometry" />
        </mxCell>
        <mxCell id="F2M6K5cG2sb-yx1ZD4yc-54" value="" style="curved=1;endArrow=classic;html=1;rounded=0;exitX=0.302;exitY=0.97;exitDx=0;exitDy=0;exitPerimeter=0;" parent="1" source="F2M6K5cG2sb-yx1ZD4yc-42" target="F2M6K5cG2sb-yx1ZD4yc-44" edge="1">
          <mxGeometry width="50" height="50" relative="1" as="geometry">
            <mxPoint x="41.38" y="2490" as="sourcePoint" />
            <mxPoint x="91.38" y="2440" as="targetPoint" />
            <Array as="points">
              <mxPoint x="91.38" y="2490" />
            </Array>
          </mxGeometry>
        </mxCell>
        <mxCell id="F2M6K5cG2sb-yx1ZD4yc-55" value="Passive action" style="text;html=1;strokeColor=none;fillColor=none;align=center;verticalAlign=middle;whiteSpace=wrap;rounded=0;" parent="1" vertex="1">
          <mxGeometry x="12.379999999999999" y="2445" width="120" height="90" as="geometry" />
        </mxCell>
        <mxCell id="F2M6K5cG2sb-yx1ZD4yc-59" value="" style="curved=1;endArrow=classic;html=1;rounded=0;exitX=0.5;exitY=0;exitDx=0;exitDy=0;entryX=0.554;entryY=1.007;entryDx=0;entryDy=0;entryPerimeter=0;" parent="1" source="F2M6K5cG2sb-yx1ZD4yc-46" target="F2M6K5cG2sb-yx1ZD4yc-49" edge="1">
          <mxGeometry width="50" height="50" relative="1" as="geometry">
            <mxPoint x="700.88" y="2560" as="sourcePoint" />
            <mxPoint x="750.88" y="2510" as="targetPoint" />
            <Array as="points">
              <mxPoint x="660.88" y="2560" />
              <mxPoint x="660.88" y="2480" />
            </Array>
          </mxGeometry>
        </mxCell>
        <mxCell id="F2M6K5cG2sb-yx1ZD4yc-60" value="Passive action" style="text;html=1;strokeColor=none;fillColor=none;align=center;verticalAlign=middle;whiteSpace=wrap;rounded=0;" parent="1" vertex="1">
          <mxGeometry x="665.75" y="2505" width="90" height="30" as="geometry" />
        </mxCell>
        <mxCell id="F2M6K5cG2sb-yx1ZD4yc-61" value="Difficult Changes:&lt;br&gt;Getting more difficult as going away from start point" style="ellipse;whiteSpace=wrap;html=1;aspect=fixed;fillColor=#FFFFFF;" parent="1" vertex="1">
          <mxGeometry x="646.76" y="460" width="150" height="150" as="geometry" />
        </mxCell>
        <mxCell id="F2M6K5cG2sb-yx1ZD4yc-62" value="" style="curved=1;endArrow=classic;html=1;rounded=0;exitX=1;exitY=0.5;exitDx=0;exitDy=0;entryX=1;entryY=0.5;entryDx=0;entryDy=0;" parent="1" source="F2M6K5cG2sb-yx1ZD4yc-3" target="F2M6K5cG2sb-yx1ZD4yc-1" edge="1">
          <mxGeometry width="50" height="50" relative="1" as="geometry">
            <mxPoint x="182.76000000000022" y="408" as="sourcePoint" />
            <mxPoint x="577.7264300007691" y="757.5801197264273" as="targetPoint" />
            <Array as="points">
              <mxPoint x="275.76" y="330" />
              <mxPoint x="365.76" y="350" />
              <mxPoint x="545.76" y="390" />
              <mxPoint x="645.76" y="470" />
            </Array>
          </mxGeometry>
        </mxCell>
        <mxCell id="F2M6K5cG2sb-yx1ZD4yc-63" value="Passive action" style="text;html=1;strokeColor=none;fillColor=none;align=center;verticalAlign=middle;whiteSpace=wrap;rounded=0;" parent="1" vertex="1">
          <mxGeometry x="396.76" y="330" width="90" height="30" as="geometry" />
        </mxCell>
        <mxCell id="F2M6K5cG2sb-yx1ZD4yc-64" value="" style="curved=1;endArrow=classic;html=1;rounded=0;entryX=0.906;entryY=1.048;entryDx=0;entryDy=0;entryPerimeter=0;exitX=0.081;exitY=0.512;exitDx=0;exitDy=0;exitPerimeter=0;" parent="1" source="F2M6K5cG2sb-yx1ZD4yc-46" target="F2M6K5cG2sb-yx1ZD4yc-47" edge="1">
          <mxGeometry width="50" height="50" relative="1" as="geometry">
            <mxPoint x="300.88" y="2830" as="sourcePoint" />
            <mxPoint x="350.88" y="2780" as="targetPoint" />
            <Array as="points">
              <mxPoint x="410.88" y="2800" />
              <mxPoint x="300.88" y="2780" />
            </Array>
          </mxGeometry>
        </mxCell>
        <mxCell id="F2M6K5cG2sb-yx1ZD4yc-65" value="Passive action" style="text;html=1;strokeColor=none;fillColor=none;align=center;verticalAlign=middle;whiteSpace=wrap;rounded=0;" parent="1" vertex="1">
          <mxGeometry x="330" y="2770" width="120" height="90" as="geometry" />
        </mxCell>
        <mxCell id="F2M6K5cG2sb-yx1ZD4yc-66" value="" style="ellipse;whiteSpace=wrap;html=1;aspect=fixed;fillColor=#FFD966;" parent="1" vertex="1">
          <mxGeometry x="101" y="3451" width="480" height="480" as="geometry" />
        </mxCell>
        <mxCell id="F2M6K5cG2sb-yx1ZD4yc-67" value="" style="ellipse;whiteSpace=wrap;html=1;aspect=fixed;fillColor=#FFFFFF;" parent="1" vertex="1">
          <mxGeometry x="43" y="3431" width="128" height="128" as="geometry" />
        </mxCell>
        <mxCell id="F2M6K5cG2sb-yx1ZD4yc-68" value="" style="ellipse;whiteSpace=wrap;html=1;aspect=fixed;fillColor=#FFFFFF;" parent="1" vertex="1">
          <mxGeometry x="501" y="3833.5" width="128" height="128" as="geometry" />
        </mxCell>
        <mxCell id="F2M6K5cG2sb-yx1ZD4yc-69" value="" style="ellipse;whiteSpace=wrap;html=1;aspect=fixed;fillColor=#FFFFFF;" parent="1" vertex="1">
          <mxGeometry x="47" y="3823.5" width="128" height="128" as="geometry" />
        </mxCell>
        <mxCell id="F2M6K5cG2sb-yx1ZD4yc-70" value="Collect Start 1:&lt;br&gt;Meet collectable item" style="text;html=1;strokeColor=none;fillColor=none;align=center;verticalAlign=middle;whiteSpace=wrap;rounded=0;" parent="1" vertex="1">
          <mxGeometry x="53" y="3455" width="100" height="80" as="geometry" />
        </mxCell>
        <mxCell id="F2M6K5cG2sb-yx1ZD4yc-71" value="Beat enemies:&lt;br&gt;Collect reward" style="text;html=1;strokeColor=none;fillColor=none;align=center;verticalAlign=middle;whiteSpace=wrap;rounded=0;" parent="1" vertex="1">
          <mxGeometry x="500" y="3838" width="130" height="123" as="geometry" />
        </mxCell>
        <mxCell id="F2M6K5cG2sb-yx1ZD4yc-72" value="Collect item:&lt;br&gt;Add item to bag&amp;nbsp;&lt;br&gt;Add spell to&amp;nbsp;ability bar.&lt;br&gt;Bag and ability bar has campacity&amp;nbsp;" style="text;html=1;strokeColor=none;fillColor=none;align=center;verticalAlign=middle;whiteSpace=wrap;rounded=0;" parent="1" vertex="1">
          <mxGeometry x="66.5" y="3842.5" width="94" height="90" as="geometry" />
        </mxCell>
        <mxCell id="F2M6K5cG2sb-yx1ZD4yc-73" value="" style="rounded=0;whiteSpace=wrap;html=1;fillColor=#CCCCFF;" parent="1" vertex="1">
          <mxGeometry x="166" y="3526" width="350" height="330" as="geometry" />
        </mxCell>
        <mxCell id="F2M6K5cG2sb-yx1ZD4yc-74" value="" style="ellipse;whiteSpace=wrap;html=1;aspect=fixed;fillColor=#FFFFFF;" parent="1" vertex="1">
          <mxGeometry x="496" y="3411" width="128" height="128" as="geometry" />
        </mxCell>
        <mxCell id="F2M6K5cG2sb-yx1ZD4yc-75" value="Drop Item:&lt;br&gt;When compacity achieved, dropping items required before next collection" style="text;html=1;strokeColor=none;fillColor=none;align=center;verticalAlign=middle;whiteSpace=wrap;rounded=0;" parent="1" vertex="1">
          <mxGeometry x="501" y="3440" width="109.5" height="70" as="geometry" />
        </mxCell>
        <mxCell id="F2M6K5cG2sb-yx1ZD4yc-76" value="&lt;b&gt;Collect/Inventory System&lt;/b&gt;" style="text;html=1;strokeColor=none;fillColor=none;align=center;verticalAlign=middle;whiteSpace=wrap;rounded=0;" parent="1" vertex="1">
          <mxGeometry x="241" y="3636" width="180" height="110" as="geometry" />
        </mxCell>
        <mxCell id="F2M6K5cG2sb-yx1ZD4yc-77" value="" style="curved=1;endArrow=classic;html=1;rounded=0;exitX=0.956;exitY=0.261;exitDx=0;exitDy=0;exitPerimeter=0;entryX=0;entryY=0.5;entryDx=0;entryDy=0;" parent="1" source="F2M6K5cG2sb-yx1ZD4yc-67" target="F2M6K5cG2sb-yx1ZD4yc-74" edge="1">
          <mxGeometry width="50" height="50" relative="1" as="geometry">
            <mxPoint x="241" y="3431" as="sourcePoint" />
            <mxPoint x="291" y="3381" as="targetPoint" />
            <Array as="points">
              <mxPoint x="281" y="3421" />
              <mxPoint x="341" y="3421" />
              <mxPoint x="361" y="3421" />
            </Array>
          </mxGeometry>
        </mxCell>
        <mxCell id="F2M6K5cG2sb-yx1ZD4yc-78" value="" style="curved=1;endArrow=classic;html=1;rounded=0;exitX=0.302;exitY=0.97;exitDx=0;exitDy=0;exitPerimeter=0;" parent="1" source="F2M6K5cG2sb-yx1ZD4yc-67" target="F2M6K5cG2sb-yx1ZD4yc-69" edge="1">
          <mxGeometry width="50" height="50" relative="1" as="geometry">
            <mxPoint x="-9" y="3661" as="sourcePoint" />
            <mxPoint x="41" y="3611" as="targetPoint" />
            <Array as="points">
              <mxPoint x="41" y="3661" />
            </Array>
          </mxGeometry>
        </mxCell>
        <mxCell id="F2M6K5cG2sb-yx1ZD4yc-79" value="" style="curved=1;endArrow=classic;html=1;rounded=0;exitX=0.5;exitY=0;exitDx=0;exitDy=0;entryX=0.554;entryY=1.007;entryDx=0;entryDy=0;entryPerimeter=0;" parent="1" source="F2M6K5cG2sb-yx1ZD4yc-71" target="F2M6K5cG2sb-yx1ZD4yc-74" edge="1">
          <mxGeometry width="50" height="50" relative="1" as="geometry">
            <mxPoint x="650.5" y="3731" as="sourcePoint" />
            <mxPoint x="700.5" y="3681" as="targetPoint" />
            <Array as="points">
              <mxPoint x="610.5" y="3731" />
              <mxPoint x="610.5" y="3651" />
            </Array>
          </mxGeometry>
        </mxCell>
        <mxCell id="F2M6K5cG2sb-yx1ZD4yc-80" value="Passive action" style="text;html=1;strokeColor=none;fillColor=none;align=center;verticalAlign=middle;whiteSpace=wrap;rounded=0;" parent="1" vertex="1">
          <mxGeometry x="610" y="3676" width="90" height="30" as="geometry" />
        </mxCell>
        <mxCell id="F2M6K5cG2sb-yx1ZD4yc-81" value="" style="curved=1;endArrow=classic;html=1;rounded=0;entryX=0.906;entryY=1.048;entryDx=0;entryDy=0;entryPerimeter=0;exitX=0;exitY=0.5;exitDx=0;exitDy=0;" parent="1" source="F2M6K5cG2sb-yx1ZD4yc-71" target="F2M6K5cG2sb-yx1ZD4yc-72" edge="1">
          <mxGeometry width="50" height="50" relative="1" as="geometry">
            <mxPoint x="250.5" y="4001" as="sourcePoint" />
            <mxPoint x="300.5" y="3951" as="targetPoint" />
            <Array as="points">
              <mxPoint x="360.5" y="3971" />
              <mxPoint x="250.5" y="3951" />
            </Array>
          </mxGeometry>
        </mxCell>
        <mxCell id="F2M6K5cG2sb-yx1ZD4yc-82" value="Passive action" style="text;html=1;strokeColor=none;fillColor=none;align=center;verticalAlign=middle;whiteSpace=wrap;rounded=0;" parent="1" vertex="1">
          <mxGeometry x="281.5" y="3931" width="120" height="90" as="geometry" />
        </mxCell>
        <mxCell id="F2M6K5cG2sb-yx1ZD4yc-83" value="Passive action" style="text;html=1;strokeColor=none;fillColor=none;align=center;verticalAlign=middle;whiteSpace=wrap;rounded=0;" parent="1" vertex="1">
          <mxGeometry x="271" y="3350" width="120" height="90" as="geometry" />
        </mxCell>
        <mxCell id="F2M6K5cG2sb-yx1ZD4yc-85" value="" style="endArrow=classic;html=1;rounded=0;" parent="1" source="cFTrVpyWIn3HdovlY6KM-5" target="cFTrVpyWIn3HdovlY6KM-1" edge="1">
          <mxGeometry width="50" height="50" relative="1" as="geometry">
            <mxPoint x="155.88" y="-530" as="sourcePoint" />
            <mxPoint x="175.88" y="-580" as="targetPoint" />
          </mxGeometry>
        </mxCell>
        <mxCell id="F2M6K5cG2sb-yx1ZD4yc-87" value="" style="endArrow=classic;html=1;rounded=0;exitX=1;exitY=0.5;exitDx=0;exitDy=0;entryX=0;entryY=0.5;entryDx=0;entryDy=0;" parent="1" source="cFTrVpyWIn3HdovlY6KM-5" target="cFTrVpyWIn3HdovlY6KM-8" edge="1">
          <mxGeometry width="50" height="50" relative="1" as="geometry">
            <mxPoint x="420" y="-310" as="sourcePoint" />
            <mxPoint x="470" y="-360" as="targetPoint" />
          </mxGeometry>
        </mxCell>
        <mxCell id="F2M6K5cG2sb-yx1ZD4yc-88" value="" style="endArrow=classic;html=1;rounded=0;exitX=0;exitY=0;exitDx=0;exitDy=0;" parent="1" source="cFTrVpyWIn3HdovlY6KM-8" target="cFTrVpyWIn3HdovlY6KM-1" edge="1">
          <mxGeometry width="50" height="50" relative="1" as="geometry">
            <mxPoint x="430" y="-550" as="sourcePoint" />
            <mxPoint x="480" y="-600" as="targetPoint" />
          </mxGeometry>
        </mxCell>
        <mxCell id="F2M6K5cG2sb-yx1ZD4yc-89" value="" style="endArrow=classic;html=1;rounded=0;exitX=0.47;exitY=0.998;exitDx=0;exitDy=0;exitPerimeter=0;entryX=0.5;entryY=0;entryDx=0;entryDy=0;" parent="1" source="cFTrVpyWIn3HdovlY6KM-12" target="cFTrVpyWIn3HdovlY6KM-8" edge="1">
          <mxGeometry width="50" height="50" relative="1" as="geometry">
            <mxPoint x="688.3199999999999" y="-560" as="sourcePoint" />
            <mxPoint x="738.3199999999999" y="-610" as="targetPoint" />
          </mxGeometry>
        </mxCell>
        <mxCell id="F2M6K5cG2sb-yx1ZD4yc-90" value="" style="endArrow=classic;html=1;rounded=0;exitX=0;exitY=0.5;exitDx=0;exitDy=0;entryX=1;entryY=0.5;entryDx=0;entryDy=0;" parent="1" source="cFTrVpyWIn3HdovlY6KM-12" target="cFTrVpyWIn3HdovlY6KM-1" edge="1">
          <mxGeometry width="50" height="50" relative="1" as="geometry">
            <mxPoint x="470" y="-760" as="sourcePoint" />
            <mxPoint x="520" y="-810" as="targetPoint" />
          </mxGeometry>
        </mxCell>
        <mxCell id="F2M6K5cG2sb-yx1ZD4yc-92" value="Spell to Attack each other" style="ellipse;whiteSpace=wrap;html=1;aspect=fixed;fillColor=#FFFFFF;" parent="1" vertex="1">
          <mxGeometry x="471.38" y="1190" width="80" height="80" as="geometry" />
        </mxCell>
        <mxCell id="F2M6K5cG2sb-yx1ZD4yc-93" value="" style="endArrow=classic;html=1;rounded=0;exitX=0.5;exitY=0;exitDx=0;exitDy=0;entryX=1;entryY=1;entryDx=0;entryDy=0;" parent="1" source="F2M6K5cG2sb-yx1ZD4yc-32" target="F2M6K5cG2sb-yx1ZD4yc-92" edge="1">
          <mxGeometry width="50" height="50" relative="1" as="geometry">
            <mxPoint x="680" y="1300" as="sourcePoint" />
            <mxPoint x="730" y="1250" as="targetPoint" />
          </mxGeometry>
        </mxCell>
        <mxCell id="F2M6K5cG2sb-yx1ZD4yc-94" value="Spell at self to buff" style="ellipse;whiteSpace=wrap;html=1;aspect=fixed;fillColor=#FFFFFF;" parent="1" vertex="1">
          <mxGeometry x="641" y="1200" width="78.62" height="78.62" as="geometry" />
        </mxCell>
        <mxCell id="F2M6K5cG2sb-yx1ZD4yc-95" value="" style="endArrow=classic;html=1;rounded=0;exitX=1;exitY=0;exitDx=0;exitDy=0;" parent="1" source="F2M6K5cG2sb-yx1ZD4yc-32" target="F2M6K5cG2sb-yx1ZD4yc-94" edge="1">
          <mxGeometry width="50" height="50" relative="1" as="geometry">
            <mxPoint x="660" y="1360" as="sourcePoint" />
            <mxPoint x="710" y="1310" as="targetPoint" />
            <Array as="points">
              <mxPoint x="620" y="1290" />
            </Array>
          </mxGeometry>
        </mxCell>
        <mxCell id="F2M6K5cG2sb-yx1ZD4yc-96" value="" style="endArrow=classic;html=1;rounded=0;entryX=0;entryY=1;entryDx=0;entryDy=0;" parent="1" source="F2M6K5cG2sb-yx1ZD4yc-92" target="F2M6K5cG2sb-yx1ZD4yc-97" edge="1">
          <mxGeometry width="50" height="50" relative="1" as="geometry">
            <mxPoint x="410" y="1190" as="sourcePoint" />
            <mxPoint x="560" y="1160" as="targetPoint" />
          </mxGeometry>
        </mxCell>
        <mxCell id="F2M6K5cG2sb-yx1ZD4yc-97" value="Reduce Health" style="ellipse;whiteSpace=wrap;html=1;aspect=fixed;fillColor=#FFFFFF;" parent="1" vertex="1">
          <mxGeometry x="556" y="1110" width="80" height="80" as="geometry" />
        </mxCell>
        <mxCell id="F2M6K5cG2sb-yx1ZD4yc-98" value="Spell to debuff each other" style="ellipse;whiteSpace=wrap;html=1;aspect=fixed;fillColor=#FFFFFF;" parent="1" vertex="1">
          <mxGeometry x="690" y="1300" width="80" height="80" as="geometry" />
        </mxCell>
        <mxCell id="F2M6K5cG2sb-yx1ZD4yc-99" value="" style="endArrow=classic;html=1;rounded=0;" parent="1" source="F2M6K5cG2sb-yx1ZD4yc-32" target="F2M6K5cG2sb-yx1ZD4yc-98" edge="1">
          <mxGeometry width="50" height="50" relative="1" as="geometry">
            <mxPoint x="630" y="1350" as="sourcePoint" />
            <mxPoint x="680" y="1300" as="targetPoint" />
          </mxGeometry>
        </mxCell>
        <mxCell id="F2M6K5cG2sb-yx1ZD4yc-100" value="Game Start" style="ellipse;whiteSpace=wrap;html=1;fillColor=#FFFFFF;" parent="1" vertex="1">
          <mxGeometry x="337.69" y="4440" width="120" height="80" as="geometry" />
        </mxCell>
        <mxCell id="F2M6K5cG2sb-yx1ZD4yc-102" value="Travel to adjutant grid" style="ellipse;whiteSpace=wrap;html=1;fillColor=#FFFFFF;" parent="1" vertex="1">
          <mxGeometry x="335.69" y="5150" width="120" height="80" as="geometry" />
        </mxCell>
        <mxCell id="F2M6K5cG2sb-yx1ZD4yc-103" value="Collect item" style="ellipse;whiteSpace=wrap;html=1;fillColor=#FFFFFF;direction=west;" parent="1" vertex="1">
          <mxGeometry x="47" y="5150" width="120" height="80" as="geometry" />
        </mxCell>
        <mxCell id="F2M6K5cG2sb-yx1ZD4yc-104" value="" style="endArrow=classic;html=1;rounded=0;exitX=0;exitY=0.5;exitDx=0;exitDy=0;entryX=0;entryY=0.5;entryDx=0;entryDy=0;" parent="1" source="F2M6K5cG2sb-yx1ZD4yc-102" target="F2M6K5cG2sb-yx1ZD4yc-103" edge="1">
          <mxGeometry width="50" height="50" relative="1" as="geometry">
            <mxPoint x="441.5" y="5330" as="sourcePoint" />
            <mxPoint x="491.5" y="5280" as="targetPoint" />
          </mxGeometry>
        </mxCell>
        <mxCell id="F2M6K5cG2sb-yx1ZD4yc-105" value="Meet enemies" style="ellipse;whiteSpace=wrap;html=1;fillColor=#FFFFFF;" parent="1" vertex="1">
          <mxGeometry x="660.76" y="5150" width="120" height="80" as="geometry" />
        </mxCell>
        <mxCell id="F2M6K5cG2sb-yx1ZD4yc-106" value="" style="endArrow=classic;html=1;rounded=0;exitX=1;exitY=0.5;exitDx=0;exitDy=0;" parent="1" source="F2M6K5cG2sb-yx1ZD4yc-102" target="F2M6K5cG2sb-yx1ZD4yc-105" edge="1">
          <mxGeometry width="50" height="50" relative="1" as="geometry">
            <mxPoint x="506.43" y="5200" as="sourcePoint" />
            <mxPoint x="556.43" y="5150" as="targetPoint" />
          </mxGeometry>
        </mxCell>
        <mxCell id="F2M6K5cG2sb-yx1ZD4yc-107" value="Random Generate world" style="ellipse;whiteSpace=wrap;html=1;fillColor=#FFFFFF;" parent="1" vertex="1">
          <mxGeometry x="338.31" y="4560" width="120" height="80" as="geometry" />
        </mxCell>
        <mxCell id="F2M6K5cG2sb-yx1ZD4yc-109" value="" style="endArrow=classic;html=1;rounded=0;exitX=0.5;exitY=1;exitDx=0;exitDy=0;" parent="1" source="F2M6K5cG2sb-yx1ZD4yc-100" target="F2M6K5cG2sb-yx1ZD4yc-107" edge="1">
          <mxGeometry width="50" height="50" relative="1" as="geometry">
            <mxPoint x="393.31" y="4520" as="sourcePoint" />
            <mxPoint x="601.3100000000001" y="4460" as="targetPoint" />
          </mxGeometry>
        </mxCell>
        <mxCell id="F2M6K5cG2sb-yx1ZD4yc-110" value="Generating initial items" style="ellipse;whiteSpace=wrap;html=1;fillColor=#FFFFFF;" parent="1" vertex="1">
          <mxGeometry x="336.38" y="4890" width="120" height="80" as="geometry" />
        </mxCell>
        <mxCell id="F2M6K5cG2sb-yx1ZD4yc-111" value="Generating initial enemies" style="ellipse;whiteSpace=wrap;html=1;fillColor=#FFFFFF;" parent="1" vertex="1">
          <mxGeometry x="340.3099999999999" y="4780" width="120" height="80" as="geometry" />
        </mxCell>
        <mxCell id="F2M6K5cG2sb-yx1ZD4yc-118" value="Is Inventory full?" style="ellipse;whiteSpace=wrap;html=1;fillColor=#FFFFFF;" parent="1" vertex="1">
          <mxGeometry x="47" y="5280" width="120" height="80" as="geometry" />
        </mxCell>
        <mxCell id="F2M6K5cG2sb-yx1ZD4yc-120" value="" style="endArrow=classic;html=1;rounded=0;exitX=0.5;exitY=0;exitDx=0;exitDy=0;entryX=0.5;entryY=0;entryDx=0;entryDy=0;" parent="1" source="F2M6K5cG2sb-yx1ZD4yc-103" edge="1">
          <mxGeometry width="50" height="50" relative="1" as="geometry">
            <mxPoint x="160.5" y="5290" as="sourcePoint" />
            <mxPoint x="106.99999999999999" y="5280" as="targetPoint" />
          </mxGeometry>
        </mxCell>
        <mxCell id="F2M6K5cG2sb-yx1ZD4yc-121" value="Finish world generate&lt;br&gt;Game Start" style="ellipse;whiteSpace=wrap;html=1;fillColor=#FFFFFF;" parent="1" vertex="1">
          <mxGeometry x="336.76" y="5010" width="120" height="80" as="geometry" />
        </mxCell>
        <mxCell id="F2M6K5cG2sb-yx1ZD4yc-122" value="" style="endArrow=classic;html=1;rounded=0;exitX=0.5;exitY=1;exitDx=0;exitDy=0;" parent="1" source="F2M6K5cG2sb-yx1ZD4yc-121" target="F2M6K5cG2sb-yx1ZD4yc-102" edge="1">
          <mxGeometry width="50" height="50" relative="1" as="geometry">
            <mxPoint x="380" y="4810" as="sourcePoint" />
            <mxPoint x="430" y="4760" as="targetPoint" />
          </mxGeometry>
        </mxCell>
        <mxCell id="F2M6K5cG2sb-yx1ZD4yc-123" value="Generating Building/obstacle" style="ellipse;whiteSpace=wrap;html=1;fillColor=#FFFFFF;" parent="1" vertex="1">
          <mxGeometry x="337.31" y="4670" width="120" height="80" as="geometry" />
        </mxCell>
        <mxCell id="F2M6K5cG2sb-yx1ZD4yc-124" value="" style="endArrow=classic;html=1;rounded=0;exitX=0.5;exitY=1;exitDx=0;exitDy=0;entryX=0.5;entryY=0;entryDx=0;entryDy=0;" parent="1" source="F2M6K5cG2sb-yx1ZD4yc-107" target="F2M6K5cG2sb-yx1ZD4yc-123" edge="1">
          <mxGeometry width="50" height="50" relative="1" as="geometry">
            <mxPoint x="571.3100000000001" y="4570" as="sourcePoint" />
            <mxPoint x="621.3100000000001" y="4520" as="targetPoint" />
          </mxGeometry>
        </mxCell>
        <mxCell id="F2M6K5cG2sb-yx1ZD4yc-126" value="" style="endArrow=classic;html=1;rounded=0;exitX=0;exitY=1;exitDx=0;exitDy=0;" parent="1" source="F2M6K5cG2sb-yx1ZD4yc-118" target="F2M6K5cG2sb-yx1ZD4yc-127" edge="1">
          <mxGeometry width="50" height="50" relative="1" as="geometry">
            <mxPoint x="102.5" y="5350" as="sourcePoint" />
            <mxPoint x="152.5" y="5300" as="targetPoint" />
          </mxGeometry>
        </mxCell>
        <mxCell id="F2M6K5cG2sb-yx1ZD4yc-127" value="Drop something" style="ellipse;whiteSpace=wrap;html=1;fillColor=#FFFFFF;" parent="1" vertex="1">
          <mxGeometry x="13" y="5420" width="88" height="60" as="geometry" />
        </mxCell>
        <mxCell id="F2M6K5cG2sb-yx1ZD4yc-128" value="Yes" style="text;html=1;strokeColor=none;fillColor=none;align=center;verticalAlign=middle;whiteSpace=wrap;rounded=0;" parent="1" vertex="1">
          <mxGeometry x="13" y="5370" width="60" height="30" as="geometry" />
        </mxCell>
        <mxCell id="F2M6K5cG2sb-yx1ZD4yc-129" value="Collect item" style="ellipse;whiteSpace=wrap;html=1;fillColor=#FFFFFF;" parent="1" vertex="1">
          <mxGeometry x="133.88" y="5420" width="88" height="60" as="geometry" />
        </mxCell>
        <mxCell id="F2M6K5cG2sb-yx1ZD4yc-131" value="" style="endArrow=classic;html=1;rounded=0;exitX=1;exitY=1;exitDx=0;exitDy=0;entryX=0.5;entryY=0;entryDx=0;entryDy=0;" parent="1" source="F2M6K5cG2sb-yx1ZD4yc-118" target="F2M6K5cG2sb-yx1ZD4yc-129" edge="1">
          <mxGeometry width="50" height="50" relative="1" as="geometry">
            <mxPoint x="174.5" y="5370" as="sourcePoint" />
            <mxPoint x="224.5" y="5320" as="targetPoint" />
          </mxGeometry>
        </mxCell>
        <mxCell id="F2M6K5cG2sb-yx1ZD4yc-136" value="No" style="text;html=1;strokeColor=none;fillColor=none;align=center;verticalAlign=middle;whiteSpace=wrap;rounded=0;" parent="1" vertex="1">
          <mxGeometry x="145.38" y="5370" width="60" height="30" as="geometry" />
        </mxCell>
        <mxCell id="F2M6K5cG2sb-yx1ZD4yc-138" value="" style="endArrow=classic;html=1;rounded=0;exitX=1;exitY=0.5;exitDx=0;exitDy=0;entryX=0;entryY=0.5;entryDx=0;entryDy=0;" parent="1" source="F2M6K5cG2sb-yx1ZD4yc-127" target="F2M6K5cG2sb-yx1ZD4yc-129" edge="1">
          <mxGeometry width="50" height="50" relative="1" as="geometry">
            <mxPoint x="84" y="5550" as="sourcePoint" />
            <mxPoint x="134" y="5500" as="targetPoint" />
          </mxGeometry>
        </mxCell>
        <mxCell id="F2M6K5cG2sb-yx1ZD4yc-139" value="Esacpe?" style="ellipse;whiteSpace=wrap;html=1;fillColor=#FFFFFF;" parent="1" vertex="1">
          <mxGeometry x="660.76" y="5270" width="120" height="80" as="geometry" />
        </mxCell>
        <mxCell id="F2M6K5cG2sb-yx1ZD4yc-140" value="" style="endArrow=classic;html=1;rounded=0;exitX=0.5;exitY=1;exitDx=0;exitDy=0;entryX=0.5;entryY=0;entryDx=0;entryDy=0;" parent="1" source="F2M6K5cG2sb-yx1ZD4yc-105" target="F2M6K5cG2sb-yx1ZD4yc-139" edge="1">
          <mxGeometry width="50" height="50" relative="1" as="geometry">
            <mxPoint x="524" y="5280" as="sourcePoint" />
            <mxPoint x="574" y="5230" as="targetPoint" />
          </mxGeometry>
        </mxCell>
        <mxCell id="F2M6K5cG2sb-yx1ZD4yc-141" value="" style="endArrow=classic;html=1;rounded=0;entryX=0.728;entryY=0.03;entryDx=0;entryDy=0;entryPerimeter=0;" parent="1" source="F2M6K5cG2sb-yx1ZD4yc-139" target="F2M6K5cG2sb-yx1ZD4yc-143" edge="1">
          <mxGeometry width="50" height="50" relative="1" as="geometry">
            <mxPoint x="584" y="5410" as="sourcePoint" />
            <mxPoint x="634" y="5360" as="targetPoint" />
          </mxGeometry>
        </mxCell>
        <mxCell id="F2M6K5cG2sb-yx1ZD4yc-143" value="Nothing Happen" style="ellipse;whiteSpace=wrap;html=1;fillColor=#FFFFFF;" parent="1" vertex="1">
          <mxGeometry x="610.18" y="5420" width="88" height="60" as="geometry" />
        </mxCell>
        <mxCell id="F2M6K5cG2sb-yx1ZD4yc-144" value="yes &amp;amp; successful" style="text;html=1;strokeColor=none;fillColor=none;align=center;verticalAlign=middle;whiteSpace=wrap;rounded=0;" parent="1" vertex="1">
          <mxGeometry x="630.3" y="5370" width="60" height="30" as="geometry" />
        </mxCell>
        <mxCell id="F2M6K5cG2sb-yx1ZD4yc-145" value="Start Combat" style="ellipse;whiteSpace=wrap;html=1;fillColor=#FFFFFF;" parent="1" vertex="1">
          <mxGeometry x="747.8199999999999" y="5420" width="88" height="60" as="geometry" />
        </mxCell>
        <mxCell id="F2M6K5cG2sb-yx1ZD4yc-146" value="" style="endArrow=classic;html=1;rounded=0;exitX=0.672;exitY=0.993;exitDx=0;exitDy=0;exitPerimeter=0;entryX=0.349;entryY=-0.017;entryDx=0;entryDy=0;entryPerimeter=0;" parent="1" source="F2M6K5cG2sb-yx1ZD4yc-139" target="F2M6K5cG2sb-yx1ZD4yc-145" edge="1">
          <mxGeometry width="50" height="50" relative="1" as="geometry">
            <mxPoint x="824" y="5390" as="sourcePoint" />
            <mxPoint x="874" y="5340" as="targetPoint" />
          </mxGeometry>
        </mxCell>
        <mxCell id="F2M6K5cG2sb-yx1ZD4yc-147" value="else" style="text;html=1;strokeColor=none;fillColor=none;align=center;verticalAlign=middle;whiteSpace=wrap;rounded=0;" parent="1" vertex="1">
          <mxGeometry x="762" y="5370" width="60" height="30" as="geometry" />
        </mxCell>
        <mxCell id="F2M6K5cG2sb-yx1ZD4yc-149" value="Player spell&amp;nbsp;" style="ellipse;whiteSpace=wrap;html=1;fillColor=#FFFFFF;" parent="1" vertex="1">
          <mxGeometry x="747.8199999999999" y="5510" width="88" height="60" as="geometry" />
        </mxCell>
        <mxCell id="F2M6K5cG2sb-yx1ZD4yc-150" value="" style="endArrow=classic;html=1;rounded=0;exitX=0.5;exitY=1;exitDx=0;exitDy=0;entryX=0.5;entryY=0;entryDx=0;entryDy=0;" parent="1" source="F2M6K5cG2sb-yx1ZD4yc-145" target="F2M6K5cG2sb-yx1ZD4yc-149" edge="1">
          <mxGeometry width="50" height="50" relative="1" as="geometry">
            <mxPoint x="644" y="5590" as="sourcePoint" />
            <mxPoint x="694" y="5540" as="targetPoint" />
          </mxGeometry>
        </mxCell>
        <mxCell id="F2M6K5cG2sb-yx1ZD4yc-159" value="" style="edgeStyle=orthogonalEdgeStyle;rounded=0;orthogonalLoop=1;jettySize=auto;html=1;" parent="1" source="F2M6K5cG2sb-yx1ZD4yc-151" target="F2M6K5cG2sb-yx1ZD4yc-156" edge="1">
          <mxGeometry relative="1" as="geometry" />
        </mxCell>
        <mxCell id="F2M6K5cG2sb-yx1ZD4yc-151" value="Enemies spell" style="ellipse;whiteSpace=wrap;html=1;fillColor=#FFFFFF;" parent="1" vertex="1">
          <mxGeometry x="749.4399999999999" y="5670" width="88" height="60" as="geometry" />
        </mxCell>
        <mxCell id="F2M6K5cG2sb-yx1ZD4yc-152" value="" style="endArrow=classic;startArrow=classic;html=1;rounded=0;entryX=0.5;entryY=1;entryDx=0;entryDy=0;" parent="1" source="F2M6K5cG2sb-yx1ZD4yc-151" target="F2M6K5cG2sb-yx1ZD4yc-149" edge="1">
          <mxGeometry width="50" height="50" relative="1" as="geometry">
            <mxPoint x="704" y="5630" as="sourcePoint" />
            <mxPoint x="754" y="5580" as="targetPoint" />
          </mxGeometry>
        </mxCell>
        <mxCell id="F2M6K5cG2sb-yx1ZD4yc-154" value="" style="endArrow=classic;html=1;rounded=0;exitX=0;exitY=0.5;exitDx=0;exitDy=0;" parent="1" source="F2M6K5cG2sb-yx1ZD4yc-149" edge="1">
          <mxGeometry width="50" height="50" relative="1" as="geometry">
            <mxPoint x="674" y="5580" as="sourcePoint" />
            <mxPoint x="714" y="5540" as="targetPoint" />
          </mxGeometry>
        </mxCell>
        <mxCell id="F2M6K5cG2sb-yx1ZD4yc-155" value="Enemies defeat" style="ellipse;whiteSpace=wrap;html=1;fillColor=#FFFFFF;" parent="1" vertex="1">
          <mxGeometry x="626.4399999999999" y="5510" width="88" height="60" as="geometry" />
        </mxCell>
        <mxCell id="F2M6K5cG2sb-yx1ZD4yc-156" value="Player defeat" style="ellipse;whiteSpace=wrap;html=1;fillColor=#FFFFFF;" parent="1" vertex="1">
          <mxGeometry x="626.44" y="5670" width="88" height="60" as="geometry" />
        </mxCell>
        <mxCell id="F2M6K5cG2sb-yx1ZD4yc-157" value="" style="endArrow=classic;html=1;rounded=0;entryX=1;entryY=0.5;entryDx=0;entryDy=0;exitX=0;exitY=0.5;exitDx=0;exitDy=0;" parent="1" source="F2M6K5cG2sb-yx1ZD4yc-151" target="F2M6K5cG2sb-yx1ZD4yc-156" edge="1">
          <mxGeometry width="50" height="50" relative="1" as="geometry">
            <mxPoint x="745.44" y="5700" as="sourcePoint" />
            <mxPoint x="725.44" y="5590" as="targetPoint" />
          </mxGeometry>
        </mxCell>
        <mxCell id="F2M6K5cG2sb-yx1ZD4yc-160" value="Attack /debuff each other or buff self" style="text;html=1;strokeColor=none;fillColor=none;align=center;verticalAlign=middle;whiteSpace=wrap;rounded=0;" parent="1" vertex="1">
          <mxGeometry x="728" y="5580" width="60" height="80" as="geometry" />
        </mxCell>
        <mxCell id="F2M6K5cG2sb-yx1ZD4yc-162" value="Has reward?" style="ellipse;whiteSpace=wrap;html=1;fillColor=#FFFFFF;" parent="1" vertex="1">
          <mxGeometry x="352.99999999999994" y="5580" width="88" height="60" as="geometry" />
        </mxCell>
        <mxCell id="F2M6K5cG2sb-yx1ZD4yc-169" value="Random change on map" style="ellipse;whiteSpace=wrap;html=1;fillColor=#FFFFFF;" parent="1" vertex="1">
          <mxGeometry x="337" y="5270" width="120" height="80" as="geometry" />
        </mxCell>
        <mxCell id="F2M6K5cG2sb-yx1ZD4yc-170" value="" style="endArrow=classic;html=1;rounded=0;exitX=0.5;exitY=1;exitDx=0;exitDy=0;" parent="1" source="F2M6K5cG2sb-yx1ZD4yc-102" target="F2M6K5cG2sb-yx1ZD4yc-169" edge="1">
          <mxGeometry width="50" height="50" relative="1" as="geometry">
            <mxPoint x="494" y="5270" as="sourcePoint" />
            <mxPoint x="544" y="5220" as="targetPoint" />
          </mxGeometry>
        </mxCell>
        <mxCell id="F2M6K5cG2sb-yx1ZD4yc-172" value="new item random generate/old item ramdon disappear" style="ellipse;whiteSpace=wrap;html=1;fillColor=#FFFFFF;" parent="1" vertex="1">
          <mxGeometry x="255" y="5370" width="120" height="80" as="geometry" />
        </mxCell>
        <mxCell id="F2M6K5cG2sb-yx1ZD4yc-173" value="" style="endArrow=classic;html=1;rounded=0;exitX=0;exitY=1;exitDx=0;exitDy=0;" parent="1" source="F2M6K5cG2sb-yx1ZD4yc-169" target="F2M6K5cG2sb-yx1ZD4yc-172" edge="1">
          <mxGeometry width="50" height="50" relative="1" as="geometry">
            <mxPoint x="424" y="5430" as="sourcePoint" />
            <mxPoint x="474" y="5380" as="targetPoint" />
          </mxGeometry>
        </mxCell>
        <mxCell id="F2M6K5cG2sb-yx1ZD4yc-174" value="Enemies&#39; position random change" style="ellipse;whiteSpace=wrap;html=1;fillColor=#FFFFFF;" parent="1" vertex="1">
          <mxGeometry x="422" y="5370" width="120" height="80" as="geometry" />
        </mxCell>
        <mxCell id="F2M6K5cG2sb-yx1ZD4yc-175" value="" style="endArrow=classic;html=1;rounded=0;exitX=1;exitY=1;exitDx=0;exitDy=0;" parent="1" source="F2M6K5cG2sb-yx1ZD4yc-169" target="F2M6K5cG2sb-yx1ZD4yc-174" edge="1">
          <mxGeometry width="50" height="50" relative="1" as="geometry">
            <mxPoint x="484" y="5310" as="sourcePoint" />
            <mxPoint x="534" y="5260" as="targetPoint" />
          </mxGeometry>
        </mxCell>
        <mxCell id="F2M6K5cG2sb-yx1ZD4yc-176" value="One loop finish" style="ellipse;whiteSpace=wrap;html=1;fillColor=#FFFFFF;" parent="1" vertex="1">
          <mxGeometry x="336" y="5470" width="120" height="80" as="geometry" />
        </mxCell>
        <mxCell id="F2M6K5cG2sb-yx1ZD4yc-177" value="" style="endArrow=classic;html=1;rounded=0;exitX=0.686;exitY=0.999;exitDx=0;exitDy=0;exitPerimeter=0;" parent="1" source="F2M6K5cG2sb-yx1ZD4yc-172" target="F2M6K5cG2sb-yx1ZD4yc-176" edge="1">
          <mxGeometry width="50" height="50" relative="1" as="geometry">
            <mxPoint x="534" y="5320" as="sourcePoint" />
            <mxPoint x="584" y="5270" as="targetPoint" />
          </mxGeometry>
        </mxCell>
        <mxCell id="F2M6K5cG2sb-yx1ZD4yc-178" value="" style="endArrow=classic;html=1;rounded=0;exitX=0.257;exitY=0.929;exitDx=0;exitDy=0;exitPerimeter=0;" parent="1" source="F2M6K5cG2sb-yx1ZD4yc-174" target="F2M6K5cG2sb-yx1ZD4yc-176" edge="1">
          <mxGeometry width="50" height="50" relative="1" as="geometry">
            <mxPoint x="464" y="5300" as="sourcePoint" />
            <mxPoint x="514" y="5250" as="targetPoint" />
          </mxGeometry>
        </mxCell>
        <mxCell id="F2M6K5cG2sb-yx1ZD4yc-181" value="" style="curved=1;endArrow=classic;html=1;rounded=0;exitX=1;exitY=0.5;exitDx=0;exitDy=0;entryX=1;entryY=1;entryDx=0;entryDy=0;" parent="1" source="F2M6K5cG2sb-yx1ZD4yc-176" target="F2M6K5cG2sb-yx1ZD4yc-102" edge="1">
          <mxGeometry width="50" height="50" relative="1" as="geometry">
            <mxPoint x="534" y="5490" as="sourcePoint" />
            <mxPoint x="444" y="5200" as="targetPoint" />
            <Array as="points">
              <mxPoint x="634" y="5500" />
              <mxPoint x="564" y="5220" />
            </Array>
          </mxGeometry>
        </mxCell>
        <mxCell id="F2M6K5cG2sb-yx1ZD4yc-182" value="Next loop" style="text;html=1;strokeColor=none;fillColor=none;align=center;verticalAlign=middle;whiteSpace=wrap;rounded=0;" parent="1" vertex="1">
          <mxGeometry x="516" y="5280" width="60" height="30" as="geometry" />
        </mxCell>
        <mxCell id="F2M6K5cG2sb-yx1ZD4yc-186" value="" style="curved=1;endArrow=classic;html=1;rounded=0;exitX=0;exitY=0.5;exitDx=0;exitDy=0;entryX=0.053;entryY=0.196;entryDx=0;entryDy=0;entryPerimeter=0;" parent="1" source="F2M6K5cG2sb-yx1ZD4yc-162" target="F2M6K5cG2sb-yx1ZD4yc-103" edge="1">
          <mxGeometry width="50" height="50" relative="1" as="geometry">
            <mxPoint x="424" y="5630" as="sourcePoint" />
            <mxPoint x="474" y="5580" as="targetPoint" />
            <Array as="points">
              <mxPoint x="314" y="5580" />
              <mxPoint x="264" y="5510" />
            </Array>
          </mxGeometry>
        </mxCell>
        <mxCell id="F2M6K5cG2sb-yx1ZD4yc-187" value="Yes" style="text;html=1;strokeColor=none;fillColor=none;align=center;verticalAlign=middle;whiteSpace=wrap;rounded=0;" parent="1" vertex="1">
          <mxGeometry x="286" y="5550" width="60" height="30" as="geometry" />
        </mxCell>
        <mxCell id="F2M6K5cG2sb-yx1ZD4yc-189" value="Is Boss?" style="ellipse;whiteSpace=wrap;html=1;fillColor=#FFFFFF;" parent="1" vertex="1">
          <mxGeometry x="500.76" y="5510" width="88" height="60" as="geometry" />
        </mxCell>
        <mxCell id="F2M6K5cG2sb-yx1ZD4yc-190" value="" style="endArrow=classic;html=1;rounded=0;exitX=0;exitY=0.5;exitDx=0;exitDy=0;entryX=1;entryY=0.5;entryDx=0;entryDy=0;" parent="1" source="F2M6K5cG2sb-yx1ZD4yc-155" target="F2M6K5cG2sb-yx1ZD4yc-189" edge="1">
          <mxGeometry width="50" height="50" relative="1" as="geometry">
            <mxPoint x="554" y="5660" as="sourcePoint" />
            <mxPoint x="604" y="5610" as="targetPoint" />
          </mxGeometry>
        </mxCell>
        <mxCell id="F2M6K5cG2sb-yx1ZD4yc-191" value="Game finish" style="ellipse;whiteSpace=wrap;html=1;fillColor=#FFFFFF;" parent="1" vertex="1">
          <mxGeometry x="502.00000000000006" y="5670" width="88" height="60" as="geometry" />
        </mxCell>
        <mxCell id="F2M6K5cG2sb-yx1ZD4yc-192" value="" style="endArrow=classic;html=1;rounded=0;exitX=0.5;exitY=1;exitDx=0;exitDy=0;entryX=0.5;entryY=0;entryDx=0;entryDy=0;" parent="1" source="F2M6K5cG2sb-yx1ZD4yc-189" target="F2M6K5cG2sb-yx1ZD4yc-191" edge="1">
          <mxGeometry width="50" height="50" relative="1" as="geometry">
            <mxPoint x="624" y="5670" as="sourcePoint" />
            <mxPoint x="674" y="5620" as="targetPoint" />
          </mxGeometry>
        </mxCell>
        <mxCell id="F2M6K5cG2sb-yx1ZD4yc-194" value="" style="endArrow=classic;html=1;rounded=0;exitX=0;exitY=0.5;exitDx=0;exitDy=0;entryX=1;entryY=0.5;entryDx=0;entryDy=0;" parent="1" source="F2M6K5cG2sb-yx1ZD4yc-156" target="F2M6K5cG2sb-yx1ZD4yc-191" edge="1">
          <mxGeometry width="50" height="50" relative="1" as="geometry">
            <mxPoint x="614" y="5660" as="sourcePoint" />
            <mxPoint x="664" y="5610" as="targetPoint" />
          </mxGeometry>
        </mxCell>
        <mxCell id="F2M6K5cG2sb-yx1ZD4yc-195" value="Yes" style="text;html=1;strokeColor=none;fillColor=none;align=center;verticalAlign=middle;whiteSpace=wrap;rounded=0;" parent="1" vertex="1">
          <mxGeometry x="535.82" y="5605" width="60" height="30" as="geometry" />
        </mxCell>
        <mxCell id="F2M6K5cG2sb-yx1ZD4yc-196" value="" style="endArrow=classic;html=1;rounded=0;exitX=0;exitY=0.5;exitDx=0;exitDy=0;entryX=1;entryY=0;entryDx=0;entryDy=0;" parent="1" source="F2M6K5cG2sb-yx1ZD4yc-189" target="F2M6K5cG2sb-yx1ZD4yc-162" edge="1">
          <mxGeometry width="50" height="50" relative="1" as="geometry">
            <mxPoint x="294" y="5680" as="sourcePoint" />
            <mxPoint x="344" y="5630" as="targetPoint" />
          </mxGeometry>
        </mxCell>
        <mxCell id="F2M6K5cG2sb-yx1ZD4yc-199" value="No" style="text;html=1;strokeColor=none;fillColor=none;align=center;verticalAlign=middle;whiteSpace=wrap;rounded=0;" parent="1" vertex="1">
          <mxGeometry x="442" y="5570" width="60" height="30" as="geometry" />
        </mxCell>
        <mxCell id="F2M6K5cG2sb-yx1ZD4yc-200" value="" style="endArrow=classic;html=1;rounded=0;exitX=0.5;exitY=0;exitDx=0;exitDy=0;entryX=0.5;entryY=1;entryDx=0;entryDy=0;" parent="1" source="F2M6K5cG2sb-yx1ZD4yc-162" target="F2M6K5cG2sb-yx1ZD4yc-176" edge="1">
          <mxGeometry width="50" height="50" relative="1" as="geometry">
            <mxPoint x="184" y="5670" as="sourcePoint" />
            <mxPoint x="234" y="5620" as="targetPoint" />
          </mxGeometry>
        </mxCell>
        <mxCell id="F2M6K5cG2sb-yx1ZD4yc-201" value="Yes" style="text;html=1;strokeColor=none;fillColor=none;align=center;verticalAlign=middle;whiteSpace=wrap;rounded=0;" parent="1" vertex="1">
          <mxGeometry x="85.38" y="5430" width="60" height="30" as="geometry" />
        </mxCell>
        <mxCell id="F2M6K5cG2sb-yx1ZD4yc-203" value="don&#39;t collect" style="ellipse;whiteSpace=wrap;html=1;fillColor=#FFFFFF;" parent="1" vertex="1">
          <mxGeometry x="63" y="5510" width="88" height="60" as="geometry" />
        </mxCell>
        <mxCell id="F2M6K5cG2sb-yx1ZD4yc-204" value="" style="endArrow=classic;html=1;rounded=0;exitX=0.5;exitY=1;exitDx=0;exitDy=0;entryX=0;entryY=0;entryDx=0;entryDy=0;" parent="1" source="F2M6K5cG2sb-yx1ZD4yc-127" target="F2M6K5cG2sb-yx1ZD4yc-203" edge="1">
          <mxGeometry width="50" height="50" relative="1" as="geometry">
            <mxPoint x="34" y="5630" as="sourcePoint" />
            <mxPoint x="84" y="5580" as="targetPoint" />
          </mxGeometry>
        </mxCell>
        <mxCell id="F2M6K5cG2sb-yx1ZD4yc-205" value="No" style="text;html=1;strokeColor=none;fillColor=none;align=center;verticalAlign=middle;whiteSpace=wrap;rounded=0;" parent="1" vertex="1">
          <mxGeometry x="20.5" y="5485" width="60" height="30" as="geometry" />
        </mxCell>
        <mxCell id="F2M6K5cG2sb-yx1ZD4yc-207" value="" style="endArrow=classic;html=1;rounded=0;exitX=1;exitY=0.5;exitDx=0;exitDy=0;entryX=0;entryY=0.5;entryDx=0;entryDy=0;" parent="1" source="F2M6K5cG2sb-yx1ZD4yc-129" target="F2M6K5cG2sb-yx1ZD4yc-176" edge="1">
          <mxGeometry width="50" height="50" relative="1" as="geometry">
            <mxPoint x="174" y="5630" as="sourcePoint" />
            <mxPoint x="224" y="5580" as="targetPoint" />
          </mxGeometry>
        </mxCell>
        <mxCell id="F2M6K5cG2sb-yx1ZD4yc-208" value="" style="endArrow=classic;html=1;rounded=0;exitX=1;exitY=0.5;exitDx=0;exitDy=0;entryX=0.067;entryY=0.625;entryDx=0;entryDy=0;entryPerimeter=0;" parent="1" source="F2M6K5cG2sb-yx1ZD4yc-203" target="F2M6K5cG2sb-yx1ZD4yc-176" edge="1">
          <mxGeometry width="50" height="50" relative="1" as="geometry">
            <mxPoint x="184" y="5670" as="sourcePoint" />
            <mxPoint x="234" y="5620" as="targetPoint" />
          </mxGeometry>
        </mxCell>
        <mxCell id="2RGnhPPAcXWDdpYunEx8-1" value="" style="endArrow=classic;html=1;rounded=0;exitX=0.5;exitY=1;exitDx=0;exitDy=0;" edge="1" parent="1" source="F2M6K5cG2sb-yx1ZD4yc-123" target="F2M6K5cG2sb-yx1ZD4yc-111">
          <mxGeometry width="50" height="50" relative="1" as="geometry">
            <mxPoint x="120" y="4820" as="sourcePoint" />
            <mxPoint x="170" y="4770" as="targetPoint" />
          </mxGeometry>
        </mxCell>
        <mxCell id="2RGnhPPAcXWDdpYunEx8-2" value="" style="endArrow=classic;html=1;rounded=0;entryX=0.5;entryY=0;entryDx=0;entryDy=0;" edge="1" parent="1" target="F2M6K5cG2sb-yx1ZD4yc-110">
          <mxGeometry width="50" height="50" relative="1" as="geometry">
            <mxPoint x="396" y="4860" as="sourcePoint" />
            <mxPoint x="240" y="4810" as="targetPoint" />
          </mxGeometry>
        </mxCell>
        <mxCell id="2RGnhPPAcXWDdpYunEx8-3" value="" style="endArrow=classic;html=1;rounded=0;exitX=0.5;exitY=1;exitDx=0;exitDy=0;" edge="1" parent="1" source="F2M6K5cG2sb-yx1ZD4yc-110" target="F2M6K5cG2sb-yx1ZD4yc-121">
          <mxGeometry width="50" height="50" relative="1" as="geometry">
            <mxPoint x="120" y="4900" as="sourcePoint" />
            <mxPoint x="170" y="4850" as="targetPoint" />
          </mxGeometry>
        </mxCell>
        <mxCell id="2RGnhPPAcXWDdpYunEx8-4" value="" style="endArrow=classic;html=1;rounded=0;exitX=0.5;exitY=1;exitDx=0;exitDy=0;" edge="1" parent="1" source="F2M6K5cG2sb-yx1ZD4yc-97" target="F2M6K5cG2sb-yx1ZD4yc-32">
          <mxGeometry width="50" height="50" relative="1" as="geometry">
            <mxPoint x="360" y="1200" as="sourcePoint" />
            <mxPoint x="410" y="1150" as="targetPoint" />
          </mxGeometry>
        </mxCell>
        <mxCell id="2RGnhPPAcXWDdpYunEx8-5" value="" style="endArrow=classic;html=1;rounded=0;exitX=0.269;exitY=0.968;exitDx=0;exitDy=0;entryX=0.953;entryY=0.245;entryDx=0;entryDy=0;entryPerimeter=0;exitPerimeter=0;" edge="1" parent="1" source="F2M6K5cG2sb-yx1ZD4yc-94" target="F2M6K5cG2sb-yx1ZD4yc-32">
          <mxGeometry width="50" height="50" relative="1" as="geometry">
            <mxPoint x="760" y="1220" as="sourcePoint" />
            <mxPoint x="810" y="1170" as="targetPoint" />
            <Array as="points">
              <mxPoint x="670" y="1310" />
            </Array>
          </mxGeometry>
        </mxCell>
        <mxCell id="2RGnhPPAcXWDdpYunEx8-6" value="" style="endArrow=classic;html=1;rounded=0;exitX=0.076;exitY=0.832;exitDx=0;exitDy=0;exitPerimeter=0;entryX=1;entryY=0.5;entryDx=0;entryDy=0;" edge="1" parent="1" source="F2M6K5cG2sb-yx1ZD4yc-98" target="F2M6K5cG2sb-yx1ZD4yc-32">
          <mxGeometry width="50" height="50" relative="1" as="geometry">
            <mxPoint x="820" y="1240" as="sourcePoint" />
            <mxPoint x="870" y="1190" as="targetPoint" />
          </mxGeometry>
        </mxCell>
      </root>
    </mxGraphModel>
  </diagram>
</mxfile>
